<svg aria-hidden="true" style="position: absolute; width: 0; height: 0; overflow: hidden;" version="1.1" xmlns="http://www.w3.org/2000/svg" xmlns:xlink="http://www.w3.org/1999/xlink">
<defs>
<symbol id="logo" viewBox="0 0 70 32">
<path d="M2.61 28.734l-0.064-0.416c-0.186 0.163-0.399 0.291-0.63 0.378-0.217 0.089-0.449 0.136-0.683 0.139-0.164 0.009-0.328-0.015-0.483-0.071s-0.296-0.142-0.417-0.254c-0.115-0.111-0.204-0.246-0.263-0.395s-0.084-0.309-0.076-0.469c-0.007-0.177 0.027-0.353 0.099-0.515s0.179-0.305 0.314-0.418c0.317-0.243 0.709-0.366 1.107-0.346 0.338 0.005 0.674 0.052 1.001 0.139v-0.533c0.012-0.109 0.001-0.22-0.033-0.325s-0.089-0.201-0.163-0.282c-0.192-0.137-0.427-0.199-0.662-0.176-0.475 0.006-0.945 0.091-1.393 0.25v-0.554c0.22-0.112 0.456-0.191 0.699-0.234 0.273-0.058 0.552-0.086 0.831-0.085 0.394-0.033 0.788 0.079 1.107 0.314 0.126 0.124 0.224 0.273 0.286 0.439s0.087 0.343 0.074 0.52v2.893h-0.651zM1.419 28.238c0.4-0.015 0.784-0.159 1.096-0.41v-0.81c-0.275-0.070-0.558-0.106-0.842-0.107-0.593 0-0.895 0.234-0.895 0.693-0.005 0.086 0.007 0.172 0.036 0.252s0.075 0.154 0.133 0.217c0.065 0.058 0.14 0.102 0.222 0.131s0.168 0.040 0.255 0.034h-0.005zM7.154 28.734v-2.707c0.018-0.222-0.044-0.444-0.175-0.623-0.068-0.070-0.151-0.124-0.243-0.158s-0.189-0.047-0.287-0.039c-0.441 0.007-0.869 0.148-1.228 0.405v3.122h-0.789v-4.049h0.657l0.079 0.448c0.453-0.36 1.011-0.558 1.588-0.565 0.16-0.012 0.32 0.010 0.471 0.063s0.29 0.137 0.408 0.246c0.109 0.122 0.192 0.266 0.244 0.421s0.072 0.321 0.058 0.484v2.973l-0.784-0.021zM40.633 28.579c-0.329 0.165-0.692 0.247-1.059 0.24-0.262 0.017-0.525-0.021-0.771-0.113s-0.471-0.235-0.658-0.42c-0.328-0.455-0.504-1.002-0.504-1.564s0.176-1.109 0.504-1.564c0.19-0.186 0.417-0.33 0.666-0.422s0.515-0.13 0.779-0.111c0.346-0.002 0.688 0.075 1.001 0.224v0.565c-0.283-0.1-0.579-0.155-0.879-0.165-0.175-0.017-0.351 0.005-0.517 0.064s-0.316 0.153-0.442 0.277c-0.22 0.309-0.323 0.687-0.291 1.066v0.101c-0.030 0.379 0.075 0.757 0.297 1.066 0.122 0.122 0.269 0.216 0.431 0.275s0.335 0.081 0.506 0.066c0.319-0.006 0.635-0.060 0.937-0.16v0.575zM43.101 28.851c-0.262 0.015-0.525-0.028-0.769-0.125s-0.464-0.247-0.645-0.439c-0.334-0.457-0.514-1.010-0.514-1.577s0.18-1.12 0.514-1.577c0.381-0.363 0.886-0.565 1.411-0.565s1.030 0.202 1.411 0.565c0.334 0.457 0.514 1.010 0.514 1.577s-0.18 1.12-0.514 1.577c-0.18 0.192-0.399 0.342-0.642 0.439s-0.505 0.14-0.766 0.125zM43.101 28.212c0.741 0 1.117-0.501 1.117-1.508s-0.376-1.497-1.117-1.497-1.117 0.495-1.117 1.497c0 1.002 0.371 1.508 1.117 1.508zM51.123 28.734v-2.749c0.016-0.206-0.036-0.412-0.148-0.586-0.059-0.067-0.133-0.119-0.216-0.153s-0.172-0.047-0.261-0.039c-0.414 0.008-0.817 0.131-1.165 0.357 0.003 0.041 0.003 0.082 0 0.123v3.048h-0.784v-2.749c0.014-0.206-0.038-0.411-0.148-0.586-0.059-0.067-0.133-0.119-0.216-0.153s-0.172-0.047-0.261-0.039c-0.412 0.003-0.815 0.125-1.16 0.352v3.197h-0.784v-4.049h0.657l0.079 0.41c0.429-0.325 0.946-0.511 1.483-0.533 0.203-0.024 0.409 0.016 0.589 0.114s0.326 0.25 0.417 0.434c0.454-0.357 1.012-0.556 1.589-0.565 0.154-0.011 0.309 0.011 0.454 0.064s0.277 0.137 0.388 0.245c0.205 0.254 0.302 0.58 0.27 0.906v2.973l-0.784-0.021zM53.066 30.375v-5.69h0.657l0.074 0.416c0.364-0.341 0.842-0.532 1.34-0.533 0.229-0.013 0.459 0.028 0.669 0.121s0.397 0.234 0.543 0.412c0.317 0.444 0.474 0.983 0.445 1.529 0.034 0.572-0.133 1.138-0.471 1.598-0.146 0.191-0.335 0.344-0.551 0.447s-0.454 0.152-0.693 0.145c-0.454 0.009-0.895-0.159-1.228-0.469v2.025h-0.784zM54.914 25.207c-0.383 0.004-0.755 0.133-1.059 0.368v2.222c0.301 0.242 0.674 0.376 1.059 0.384 0.731 0 1.091-0.495 1.091-1.481 0.031-0.393-0.061-0.787-0.265-1.124-0.095-0.127-0.221-0.227-0.366-0.291s-0.303-0.091-0.46-0.076zM60.124 28.734l-0.064-0.416c-0.186 0.163-0.399 0.291-0.63 0.378-0.219 0.089-0.452 0.136-0.688 0.139-0.164 0.008-0.328-0.016-0.482-0.072s-0.297-0.142-0.418-0.253c-0.113-0.112-0.201-0.247-0.258-0.396s-0.083-0.308-0.075-0.467c-0.007-0.176 0.026-0.352 0.096-0.514s0.177-0.305 0.311-0.419c0.318-0.244 0.712-0.367 1.112-0.346 0.338 0.005 0.674 0.052 1.001 0.139v-0.533c0.011-0.109-0.001-0.22-0.035-0.324s-0.088-0.201-0.161-0.283c-0.192-0.137-0.427-0.199-0.662-0.176-0.476 0.006-0.949 0.090-1.398 0.25v-0.554c0.22-0.112 0.456-0.191 0.699-0.234 0.273-0.057 0.552-0.086 0.831-0.085 0.396-0.032 0.79 0.080 1.112 0.314 0.125 0.124 0.222 0.274 0.283 0.44s0.086 0.343 0.072 0.519v2.893h-0.646zM58.933 28.238c0.4-0.015 0.784-0.159 1.096-0.41v-0.81c-0.275-0.070-0.558-0.106-0.842-0.107-0.598 0-0.895 0.234-0.895 0.693-0.006 0.085 0.005 0.171 0.034 0.252s0.073 0.155 0.13 0.217c0.131 0.116 0.302 0.175 0.477 0.165v0zM64.657 28.734v-2.707c0.017-0.221-0.043-0.442-0.169-0.623-0.068-0.070-0.151-0.124-0.243-0.158s-0.189-0.047-0.287-0.039c-0.441 0.007-0.869 0.148-1.228 0.405v3.122h-0.784v-4.049h0.657l0.079 0.448c0.453-0.36 1.011-0.559 1.588-0.565 0.161-0.012 0.322 0.009 0.474 0.063s0.292 0.137 0.41 0.246c0.211 0.244 0.318 0.562 0.297 0.884v2.973h-0.794zM69.857 24.685l-1.832 4.758c-0.097 0.301-0.268 0.572-0.498 0.789-0.209 0.166-0.47 0.251-0.736 0.24-0.21 0.001-0.418-0.037-0.614-0.112v-0.565c0.147 0.037 0.298 0.055 0.45 0.053 0.168 0.010 0.334-0.043 0.466-0.149 0.143-0.15 0.247-0.333 0.302-0.533l0.154-0.405-1.621-4.087h0.842l1.159 3.314 1.117-3.314h0.81v0.011zM15.737 8.322h-13.454v-0.075c0.048-0.476 0.158-0.944 0.328-1.391 0.569-1.669 1.708-3.081 3.214-3.985 1.019-0.58 2.177-0.866 3.346-0.826 0.88-0.005 1.752 0.164 2.568 0.495 0.775 0.31 1.485 0.766 2.091 1.343 0.584 0.559 1.056 1.224 1.393 1.961 0.351 0.75 0.531 1.569 0.53 2.398l-0.016 0.080zM9.293 0c-1.284-0.017-2.557 0.235-3.738 0.741-1.108 0.488-2.109 1.192-2.944 2.073-0.84 0.894-1.497 1.946-1.933 3.096-0.461 1.244-0.691 2.562-0.678 3.889-0.017 1.361 0.209 2.715 0.667 3.996 0.418 1.159 1.067 2.219 1.906 3.117 0.838 0.883 1.852 1.578 2.976 2.041 1.227 0.5 2.541 0.748 3.865 0.73 1.573 0.017 3.132-0.301 4.575-0.932 1.41-0.656 2.606-1.701 3.447-3.016l-1.668-1.412c-0.647 1.030-1.563 1.861-2.647 2.403-1.125 0.59-2.374 0.901-3.643 0.906-1.235 0.050-2.46-0.235-3.548-0.826-0.859-0.502-1.605-1.176-2.192-1.982-0.519-0.709-0.901-1.51-1.128-2.36-0.183-0.651-0.286-1.322-0.307-1.998v-0.075h15.715v-1.657c-0.008-1.092-0.205-2.173-0.582-3.197-0.37-1.037-0.936-1.993-1.668-2.813-0.761-0.839-1.683-1.513-2.711-1.982-1.187-0.517-2.471-0.772-3.765-0.746v0.005zM36.498 8.322h-13.449v-0.075c0.048-0.476 0.158-0.944 0.328-1.391 0.258-0.749 0.631-1.452 1.107-2.083 0.577-0.765 1.296-1.409 2.118-1.897 1.018-0.582 2.176-0.868 3.346-0.826 0.878-0.005 1.749 0.164 2.563 0.495 0.786 0.306 1.505 0.762 2.118 1.343 0.566 0.563 1.020 1.228 1.34 1.961 0.348 0.751 0.529 1.569 0.529 2.398v0.075zM30.059 0c-1.285-0.017-2.56 0.235-3.744 0.741-1.104 0.487-2.101 1.19-2.933 2.067-0.842 0.893-1.499 1.945-1.933 3.096-0.466 1.244-0.698 2.565-0.683 3.895-0.016 1.361 0.208 2.714 0.662 3.996 0.422 1.158 1.072 2.218 1.911 3.117 0.839 0.883 1.852 1.578 2.976 2.041 1.227 0.5 2.541 0.748 3.865 0.73 1.573 0.017 3.132-0.301 4.575-0.932 1.407-0.656 2.599-1.702 3.436-3.016l-1.668-1.412c-0.652 1.035-1.578 1.868-2.674 2.403-1.125 0.59-2.374 0.901-3.643 0.906-1.235 0.050-2.46-0.235-3.548-0.826-0.859-0.502-1.605-1.176-2.192-1.982-0.515-0.709-0.892-1.51-1.112-2.36-0.183-0.651-0.286-1.322-0.307-1.998v-0.075h15.737v-1.657c-0.004-1.090-0.194-2.171-0.561-3.197-0.37-1.037-0.936-1.993-1.668-2.813-0.76-0.837-1.681-1.511-2.706-1.982-1.188-0.516-2.471-0.77-3.765-0.746l-0.026 0.005zM59.499 17.63c-1.069 0.014-2.13-0.196-3.113-0.618-0.896-0.392-1.705-0.96-2.377-1.673-0.661-0.713-1.169-1.554-1.493-2.472-0.685-1.959-0.685-4.094 0-6.053 0.326-0.919 0.834-1.762 1.493-2.478 0.673-0.711 1.482-1.278 2.377-1.668 1.995-0.824 4.232-0.824 6.227 0 0.897 0.382 1.704 0.948 2.372 1.662s1.18 1.559 1.504 2.483c0.684 1.959 0.684 4.094 0 6.053-0.327 0.918-0.837 1.759-1.499 2.472-0.672 0.714-1.481 1.283-2.377 1.673-0.984 0.422-2.044 0.633-3.113 0.618v0zM59.499 0c-1.348-0.008-2.685 0.243-3.939 0.741-1.163 0.454-2.219 1.149-3.098 2.041-0.869 0.895-1.553 1.954-2.012 3.117-0.488 1.256-0.731 2.594-0.715 3.943-0.014 1.353 0.233 2.695 0.725 3.953 0.459 1.163 1.143 2.222 2.012 3.117 0.879 0.887 1.929 1.581 3.087 2.041 1.257 0.495 2.596 0.742 3.945 0.73 1.344 0.014 2.678-0.234 3.929-0.73 1.161-0.459 2.216-1.154 3.098-2.042s1.575-1.948 2.032-3.116c0.967-2.546 0.967-5.361 0-7.907-0.463-1.166-1.155-2.226-2.033-3.117-0.887-0.881-1.943-1.572-3.103-2.030-1.251-0.496-2.585-0.744-3.929-0.73v-0.011zM41.513 19.191h2.282v-10.208c-0.006-0.885 0.117-1.767 0.365-2.616 0.231-0.78 0.617-1.505 1.133-2.131 0.524-0.622 1.186-1.111 1.933-1.428 0.853-0.361 1.77-0.542 2.695-0.533v-2.131c-2.648 0.053-4.739 0.874-6.184 2.43-2.377 2.552-2.224 6.26-2.224 6.298v10.32z"></path>
<path d="M2.61 28.734l-0.064-0.416c-0.186 0.163-0.399 0.291-0.63 0.378-0.217 0.089-0.449 0.136-0.683 0.139-0.164 0.009-0.328-0.015-0.483-0.071s-0.296-0.142-0.417-0.254c-0.115-0.111-0.204-0.246-0.263-0.395s-0.084-0.309-0.076-0.469c-0.007-0.177 0.027-0.353 0.099-0.515s0.179-0.305 0.314-0.418c0.317-0.243 0.709-0.366 1.107-0.346 0.338 0.005 0.674 0.052 1.001 0.139v-0.533c0.012-0.109 0.001-0.22-0.033-0.325s-0.089-0.201-0.163-0.282c-0.192-0.137-0.427-0.199-0.662-0.176-0.475 0.006-0.945 0.091-1.393 0.25v-0.554c0.22-0.112 0.456-0.191 0.699-0.234 0.273-0.058 0.552-0.086 0.831-0.085 0.394-0.033 0.788 0.079 1.107 0.314 0.126 0.124 0.224 0.273 0.286 0.439s0.087 0.343 0.074 0.52v2.893h-0.651zM1.419 28.238c0.4-0.015 0.784-0.159 1.096-0.41v-0.81c-0.275-0.070-0.558-0.106-0.842-0.107-0.593 0-0.895 0.234-0.895 0.693-0.005 0.086 0.007 0.172 0.036 0.252s0.075 0.154 0.133 0.217c0.065 0.058 0.14 0.102 0.222 0.131s0.168 0.040 0.255 0.034h-0.005zM7.154 28.734v-2.707c0.018-0.222-0.044-0.444-0.175-0.623-0.068-0.070-0.151-0.124-0.243-0.158s-0.189-0.047-0.287-0.039c-0.441 0.007-0.869 0.148-1.228 0.405v3.122h-0.789v-4.049h0.657l0.079 0.448c0.453-0.36 1.011-0.558 1.588-0.565 0.16-0.012 0.32 0.010 0.471 0.063s0.29 0.137 0.408 0.246c0.109 0.122 0.192 0.266 0.244 0.421s0.072 0.321 0.058 0.484v2.973l-0.784-0.021zM40.633 28.579c-0.329 0.165-0.692 0.247-1.059 0.24-0.262 0.017-0.525-0.021-0.771-0.113s-0.471-0.235-0.658-0.42c-0.328-0.455-0.504-1.002-0.504-1.564s0.176-1.109 0.504-1.564c0.19-0.186 0.417-0.33 0.666-0.422s0.515-0.13 0.779-0.111c0.346-0.002 0.688 0.075 1.001 0.224v0.565c-0.283-0.1-0.579-0.155-0.879-0.165-0.175-0.017-0.351 0.005-0.517 0.064s-0.316 0.153-0.442 0.277c-0.22 0.309-0.323 0.687-0.291 1.066v0.101c-0.030 0.379 0.075 0.757 0.297 1.066 0.122 0.122 0.269 0.216 0.431 0.275s0.335 0.081 0.506 0.066c0.319-0.006 0.635-0.060 0.937-0.16v0.575zM43.101 28.851c-0.262 0.015-0.525-0.028-0.769-0.125s-0.464-0.247-0.645-0.439c-0.334-0.457-0.514-1.010-0.514-1.577s0.18-1.12 0.514-1.577c0.381-0.363 0.886-0.565 1.411-0.565s1.030 0.202 1.411 0.565c0.334 0.457 0.514 1.010 0.514 1.577s-0.18 1.12-0.514 1.577c-0.18 0.192-0.399 0.342-0.642 0.439s-0.505 0.14-0.766 0.125zM43.101 28.212c0.741 0 1.117-0.501 1.117-1.508s-0.376-1.497-1.117-1.497-1.117 0.495-1.117 1.497c0 1.002 0.371 1.508 1.117 1.508zM51.123 28.734v-2.749c0.016-0.206-0.036-0.412-0.148-0.586-0.059-0.067-0.133-0.119-0.216-0.153s-0.172-0.047-0.261-0.039c-0.414 0.008-0.817 0.131-1.165 0.357 0.003 0.041 0.003 0.082 0 0.123v3.048h-0.784v-2.749c0.014-0.206-0.038-0.411-0.148-0.586-0.059-0.067-0.133-0.119-0.216-0.153s-0.172-0.047-0.261-0.039c-0.412 0.003-0.815 0.125-1.16 0.352v3.197h-0.784v-4.049h0.657l0.079 0.41c0.429-0.325 0.946-0.511 1.483-0.533 0.203-0.024 0.409 0.016 0.589 0.114s0.326 0.25 0.417 0.434c0.454-0.357 1.012-0.556 1.589-0.565 0.154-0.011 0.309 0.011 0.454 0.064s0.277 0.137 0.388 0.245c0.205 0.254 0.302 0.58 0.27 0.906v2.973l-0.784-0.021zM53.066 30.375v-5.69h0.657l0.074 0.416c0.364-0.341 0.842-0.532 1.34-0.533 0.229-0.013 0.459 0.028 0.669 0.121s0.397 0.234 0.543 0.412c0.317 0.444 0.474 0.983 0.445 1.529 0.034 0.572-0.133 1.138-0.471 1.598-0.146 0.191-0.335 0.344-0.551 0.447s-0.454 0.152-0.693 0.145c-0.454 0.009-0.895-0.159-1.228-0.469v2.025h-0.784zM54.914 25.207c-0.383 0.004-0.755 0.133-1.059 0.368v2.222c0.301 0.242 0.674 0.376 1.059 0.384 0.731 0 1.091-0.495 1.091-1.481 0.031-0.393-0.061-0.787-0.265-1.124-0.095-0.127-0.221-0.227-0.366-0.291s-0.303-0.091-0.46-0.076zM60.124 28.734l-0.064-0.416c-0.186 0.163-0.399 0.291-0.63 0.378-0.219 0.089-0.452 0.136-0.688 0.139-0.164 0.008-0.328-0.016-0.482-0.072s-0.297-0.142-0.418-0.253c-0.113-0.112-0.201-0.247-0.258-0.396s-0.083-0.308-0.075-0.467c-0.007-0.176 0.026-0.352 0.096-0.514s0.177-0.305 0.311-0.419c0.318-0.244 0.712-0.367 1.112-0.346 0.338 0.005 0.674 0.052 1.001 0.139v-0.533c0.011-0.109-0.001-0.22-0.035-0.324s-0.088-0.201-0.161-0.283c-0.192-0.137-0.427-0.199-0.662-0.176-0.476 0.006-0.949 0.090-1.398 0.25v-0.554c0.22-0.112 0.456-0.191 0.699-0.234 0.273-0.057 0.552-0.086 0.831-0.085 0.396-0.032 0.79 0.080 1.112 0.314 0.125 0.124 0.222 0.274 0.283 0.44s0.086 0.343 0.072 0.519v2.893h-0.646zM58.933 28.238c0.4-0.015 0.784-0.159 1.096-0.41v-0.81c-0.275-0.070-0.558-0.106-0.842-0.107-0.598 0-0.895 0.234-0.895 0.693-0.006 0.085 0.005 0.171 0.034 0.252s0.073 0.155 0.13 0.217c0.131 0.116 0.302 0.175 0.477 0.165v0zM64.657 28.734v-2.707c0.017-0.221-0.043-0.442-0.169-0.623-0.068-0.070-0.151-0.124-0.243-0.158s-0.189-0.047-0.287-0.039c-0.441 0.007-0.869 0.148-1.228 0.405v3.122h-0.784v-4.049h0.657l0.079 0.448c0.453-0.36 1.011-0.559 1.588-0.565 0.161-0.012 0.322 0.009 0.474 0.063s0.292 0.137 0.41 0.246c0.211 0.244 0.318 0.562 0.297 0.884v2.973h-0.794zM69.857 24.685l-1.832 4.758c-0.097 0.301-0.268 0.572-0.498 0.789-0.209 0.166-0.47 0.251-0.736 0.24-0.21 0.001-0.418-0.037-0.614-0.112v-0.565c0.147 0.037 0.298 0.055 0.45 0.053 0.168 0.010 0.334-0.043 0.466-0.149 0.143-0.15 0.247-0.333 0.302-0.533l0.154-0.405-1.621-4.087h0.842l1.159 3.314 1.117-3.314h0.81v0.011zM15.737 8.322h-13.454v-0.075c0.048-0.476 0.158-0.944 0.328-1.391 0.569-1.669 1.708-3.081 3.214-3.985 1.019-0.58 2.177-0.866 3.346-0.826 0.88-0.005 1.752 0.164 2.568 0.495 0.775 0.31 1.485 0.766 2.091 1.343 0.584 0.559 1.056 1.224 1.393 1.961 0.351 0.75 0.531 1.569 0.53 2.398l-0.016 0.080zM9.293 0c-1.284-0.017-2.557 0.235-3.738 0.741-1.108 0.488-2.109 1.192-2.944 2.073-0.84 0.894-1.497 1.946-1.933 3.096-0.461 1.244-0.691 2.562-0.678 3.889-0.017 1.361 0.209 2.715 0.667 3.996 0.418 1.159 1.067 2.219 1.906 3.117 0.838 0.883 1.852 1.578 2.976 2.041 1.227 0.5 2.541 0.748 3.865 0.73 1.573 0.017 3.132-0.301 4.575-0.932 1.41-0.656 2.606-1.701 3.447-3.016l-1.668-1.412c-0.647 1.030-1.563 1.861-2.647 2.403-1.125 0.59-2.374 0.901-3.643 0.906-1.235 0.050-2.46-0.235-3.548-0.826-0.859-0.502-1.605-1.176-2.192-1.982-0.519-0.709-0.901-1.51-1.128-2.36-0.183-0.651-0.286-1.322-0.307-1.998v-0.075h15.715v-1.657c-0.008-1.092-0.205-2.173-0.582-3.197-0.37-1.037-0.936-1.993-1.668-2.813-0.761-0.839-1.683-1.513-2.711-1.982-1.187-0.517-2.471-0.772-3.765-0.746v0.005zM36.498 8.322h-13.449v-0.075c0.048-0.476 0.158-0.944 0.328-1.391 0.258-0.749 0.631-1.452 1.107-2.083 0.577-0.765 1.296-1.409 2.118-1.897 1.018-0.582 2.176-0.868 3.346-0.826 0.878-0.005 1.749 0.164 2.563 0.495 0.786 0.306 1.505 0.762 2.118 1.343 0.566 0.563 1.020 1.228 1.34 1.961 0.348 0.751 0.529 1.569 0.529 2.398v0.075zM30.059 0c-1.285-0.017-2.56 0.235-3.744 0.741-1.104 0.487-2.101 1.19-2.933 2.067-0.842 0.893-1.499 1.945-1.933 3.096-0.466 1.244-0.698 2.565-0.683 3.895-0.016 1.361 0.208 2.714 0.662 3.996 0.422 1.158 1.072 2.218 1.911 3.117 0.839 0.883 1.852 1.578 2.976 2.041 1.227 0.5 2.541 0.748 3.865 0.73 1.573 0.017 3.132-0.301 4.575-0.932 1.407-0.656 2.599-1.702 3.436-3.016l-1.668-1.412c-0.652 1.035-1.578 1.868-2.674 2.403-1.125 0.59-2.374 0.901-3.643 0.906-1.235 0.050-2.46-0.235-3.548-0.826-0.859-0.502-1.605-1.176-2.192-1.982-0.515-0.709-0.892-1.51-1.112-2.36-0.183-0.651-0.286-1.322-0.307-1.998v-0.075h15.737v-1.657c-0.004-1.090-0.194-2.171-0.561-3.197-0.37-1.037-0.936-1.993-1.668-2.813-0.76-0.837-1.681-1.511-2.706-1.982-1.188-0.516-2.471-0.77-3.765-0.746l-0.026 0.005zM59.499 17.63c-1.069 0.014-2.13-0.196-3.113-0.618-0.896-0.392-1.705-0.96-2.377-1.673-0.661-0.713-1.169-1.554-1.493-2.472-0.685-1.959-0.685-4.094 0-6.053 0.326-0.919 0.834-1.762 1.493-2.478 0.673-0.711 1.482-1.278 2.377-1.668 1.995-0.824 4.232-0.824 6.227 0 0.897 0.382 1.704 0.948 2.372 1.662s1.18 1.559 1.504 2.483c0.684 1.959 0.684 4.094 0 6.053-0.327 0.918-0.837 1.759-1.499 2.472-0.672 0.714-1.481 1.283-2.377 1.673-0.984 0.422-2.044 0.633-3.113 0.618v0zM59.499 0c-1.348-0.008-2.685 0.243-3.939 0.741-1.163 0.454-2.219 1.149-3.098 2.041-0.869 0.895-1.553 1.954-2.012 3.117-0.488 1.256-0.731 2.594-0.715 3.943-0.014 1.353 0.233 2.695 0.725 3.953 0.459 1.163 1.143 2.222 2.012 3.117 0.879 0.887 1.929 1.581 3.087 2.041 1.257 0.495 2.596 0.742 3.945 0.73 1.344 0.014 2.678-0.234 3.929-0.73 1.161-0.459 2.216-1.154 3.098-2.042s1.575-1.948 2.032-3.116c0.967-2.546 0.967-5.361 0-7.907-0.463-1.166-1.155-2.226-2.033-3.117-0.887-0.881-1.943-1.572-3.103-2.030-1.251-0.496-2.585-0.744-3.929-0.73v-0.011zM41.513 19.191h2.282v-10.208c-0.006-0.885 0.117-1.767 0.365-2.616 0.231-0.78 0.617-1.505 1.133-2.131 0.524-0.622 1.186-1.111 1.933-1.428 0.853-0.361 1.77-0.542 2.695-0.533v-2.131c-2.648 0.053-4.739 0.874-6.184 2.43-2.377 2.552-2.224 6.26-2.224 6.298v10.32z"></path>
</symbol>
<symbol id="Vector" viewBox="0 0 34 32">
<path d="M30.341 3.556v24.889h-26.548v-24.889h26.548zM30.341 0h-26.548c-2.086 0-3.793 1.6-3.793 3.556v24.889c0 1.956 1.707 3.556 3.793 3.556h26.548c2.086 0 3.793-1.6 3.793-3.556v-24.889c0-1.956-1.707-3.556-3.793-3.556z"></path>
</symbol>
</defs>
</svg>
